<?xml version="1.0" standalone="no"?>
<!DOCTYPE svg PUBLIC "-//W3C//DTD SVG 20010904//EN"
 "http://www.w3.org/TR/2001/REC-SVG-20010904/DTD/svg10.dtd">
<svg version="1.0" xmlns="http://www.w3.org/2000/svg"
 width="325.000000pt" height="260.000000pt" viewBox="0 0 325.000000 260.000000"
 preserveAspectRatio="xMidYMid meet">
<metadata>
Created by potrace 1.15, written by Peter Selinger 2001-2017
</metadata>
<g transform="translate(0.000000,260.000000) scale(0.100000,-0.100000)"
fill="#000000" stroke="none">
<path d="M1628 1898 c-143 -14 -298 -93 -393 -201 -65 -73 -130 -207 -145
-298 -85 -501 420 -884 876 -665 134 64 255 193 304 322 20 54 20 54 0 74 -23
23 -24 45 -9 121 16 82 13 199 -5 240 -9 19 -14 25 -10 14 36 -120 -14 -299
-92 -325 -27 -9 -86 -7 -121 5 -18 6 -16 0 12 -45 55 -87 46 -113 -60 -182
l-60 -40 40 6 c93 13 181 16 194 8 19 -14 -9 -52 -78 -109 -91 -74 -228 -133
-309 -133 -38 0 -96 31 -106 56 -8 22 36 61 115 103 42 22 54 31 34 27 -16 -4
-58 -9 -92 -13 l-63 -6 -16 39 c-9 21 -21 64 -27 96 l-11 59 -31 -68 c-30 -65
-57 -103 -74 -103 -4 0 -36 18 -70 40 l-62 40 29 -42 c67 -98 77 -138 38 -156
-20 -9 -31 -6 -72 23 -102 68 -231 232 -205 258 11 11 83 -3 146 -28 11 -4 1
6 -21 23 -106 78 -121 139 -54 215 l40 45 -51 -1 c-60 -2 -79 16 -79 76 0 56
44 178 91 252 105 167 271 258 474 259 102 1 165 -17 216 -63 34 -30 42 -44
46 -82 4 -31 0 -56 -10 -76 -30 -57 -121 -122 -194 -137 -51 -12 -98 22 -181
129 -16 20 -21 23 -17 10 4 -11 9 -56 12 -100 5 -72 3 -83 -17 -108 -27 -35
-78 -67 -156 -101 l-59 -25 70 -1 c146 -1 172 -24 183 -163 l7 -82 39 82 c21
45 51 93 66 108 25 24 30 25 74 15 26 -6 79 -21 117 -35 l69 -24 -70 69 c-39
38 -74 80 -79 92 -11 29 9 65 89 162 66 80 80 109 80 167 0 130 -141 199 -362
177z"/>
</g>
</svg>
