<?xml version="1.0" standalone="no"?>
<!DOCTYPE svg PUBLIC "-//W3C//DTD SVG 20010904//EN"
 "http://www.w3.org/TR/2001/REC-SVG-20010904/DTD/svg10.dtd">
<svg version="1.0" xmlns="http://www.w3.org/2000/svg"
 width="64.000000pt" height="64.000000pt" viewBox="0 0 64.000000 64.000000"
 preserveAspectRatio="xMidYMid meet">
<metadata>
Created by potrace 1.11, written by Peter Selinger 2001-2013
</metadata>
<g transform="translate(0.000000,64.000000) scale(0.100000,-0.100000)"
fill="#000000" stroke="none">
<path d="M303 629 c-10 -4 -40 -8 -67 -8 -40 -1 -47 -4 -42 -18 4 -11 -4 -26
-26 -45 -20 -18 -26 -27 -15 -24 59 19 64 18 85 -16 l21 -33 16 38 c17 40 44
57 88 52 34 -4 36 12 2 21 -30 7 -31 12 -7 30 15 12 15 13 -10 12 -15 -1 -35
-5 -45 -9z"/>
<path d="M449 543 l43 -39 -27 -32 -27 -32 45 6 c46 7 48 5 95 -62 11 -17 12
-14 8 22 -3 38 -2 41 17 36 21 -5 21 -5 -2 24 -12 16 -37 49 -54 72 -22 30
-33 39 -35 28 -4 -18 -7 -19 -30 -7 -9 4 -30 11 -47 15 -29 7 -29 6 14 -31z"/>
<path d="M77 530 c-19 -23 -44 -64 -56 -93 -20 -51 -20 -52 -1 -28 20 23 21
23 35 5 13 -18 14 -16 15 18 0 28 7 42 30 61 35 30 38 37 9 30 -21 -6 -21 -5
-4 21 26 39 11 32 -28 -14z"/>
<path d="M256 458 c-3 -13 -6 -35 -6 -49 0 -22 -8 -30 -47 -47 l-48 -21 46
-20 c44 -20 47 -24 54 -68 10 -67 14 -70 37 -26 29 55 31 56 88 39 30 -9 55
-15 56 -13 2 2 -12 20 -31 42 -19 21 -35 43 -35 48 0 5 14 26 30 47 17 21 30
40 30 43 0 3 -25 -2 -56 -10 -56 -16 -56 -16 -75 8 -10 13 -19 30 -19 37 0 21
-17 13 -24 -10z"/>
<path d="M47 358 c-9 -20 -25 -41 -34 -46 -13 -8 -14 -13 -6 -24 6 -7 13 -32
16 -56 6 -53 14 -63 23 -28 6 27 18 33 29 16 3 -5 15 -15 26 -21 20 -10 20 -9
5 20 -22 42 -20 50 17 89 l32 33 -40 -3 c-37 -3 -40 -1 -46 27 l-6 30 -16 -37z"/>
<path d="M566 295 l-18 -45 -51 0 -51 0 32 -33 31 -32 -20 -33 c-24 -37 -22
-39 31 -13 36 17 41 17 49 4 9 -18 18 -8 25 29 2 14 14 44 25 66 25 49 26 59
6 42 -20 -16 -27 -9 -29 29 -1 43 -10 39 -30 -14z"/>
<path d="M136 149 c13 -26 14 -33 2 -40 -7 -5 -22 -7 -33 -5 -18 4 -18 3 4
-15 13 -10 31 -19 41 -19 9 0 34 -13 55 -30 44 -35 59 -38 52 -10 -5 19 12 26
46 21 17 -3 5 15 -22 30 -27 16 -28 20 -21 58 4 22 5 41 3 41 -2 0 -19 -11
-38 -25 l-33 -26 -30 26 c-39 33 -46 32 -26 -6z"/>
<path d="M431 79 c-18 -23 -31 -30 -55 -29 -48 3 -51 1 -30 -15 16 -13 17 -16
4 -25 -13 -9 -13 -10 0 -10 39 0 189 65 177 77 -3 2 -14 0 -25 -6 -29 -15 -32
-14 -32 14 0 32 -9 31 -39 -6z"/>
</g>
</svg>
